PathFileType	4	(X/Y/Z)	c:/Users/goper/Files/vsCode/490R/osim_files/C03/C03_Slow_01.trc
DataRate	CameraRate	NumFrames	NumMarkers	Units                	OrigDataRate	OrigDataStartFrame	OrigNumFrames
250.00	250.00	6	36	mm	250.0	2014	2684
                Frame#	Time	LPSIS			LASIS			LTH1			LTH2			LTH3			LTH4			LLFE			LMFE			LSH1			LSH2			LSH3			LSH4			LLMAL			LMMAL			LCAL			LMTP5			LTOE			LMTP1			RPSIS			RASIS			RTH1			RTH2			RTH3			RTH4			RLFE			RMFE			RSH1			RSH2			RSH3			RSH4			RLMAL			RMMAL			RCAL			RMTP1			RTOE			RMTP5		
		X1	Y1	Z1	X2	Y2	Z2	X3	Y3	Z3	X4	Y4	Z4	X5	Y5	Z5	X6	Y6	Z6	X7	Y7	Z7	X8	Y8	Z8	X9	Y9	Z9	X10	Y10	Z10	X11	Y11	Z11	X12	Y12	Z12	X13	Y13	Z13	X14	Y14	Z14	X15	Y15	Z15	X16	Y16	Z16	X17	Y17	Z17	X18	Y18	Z18	X19	Y19	Z19	X20	Y20	Z20	X21	Y21	Z21	X22	Y22	Z22	X23	Y23	Z23	X24	Y24	Z24	X25	Y25	Z25	X26	Y26	Z26	X27	Y27	Z27	X28	Y28	Z28	X29	Y29	Z29	X30	Y30	Z30	X31	Y31	Z31	X32	Y32	Z32	X33	Y33	Z33	X34	Y34	Z34	X35	Y35	Z35	X36	Y36	Z36

2014	8.05200	-1102.23853	1009.57434	271.73959	-1278.15674	952.86835	326.10803	-1086.64709	629.79938	359.77820	-1078.36633	568.19000	352.99338	-1160.21106	614.97888	362.37173	-1143.07068	556.00867	355.57129	-1070.95935	479.35077	347.67871	-1078.78174	468.73425	236.13416	-914.31830	360.71027	345.49213	-892.58313	317.58234	343.41336	-965.38062	329.93500	354.97125	-936.54529	292.57828	348.77020	-837.54980	157.71576	319.02957	-864.08673	160.74846	242.40877	-752.15302	143.80182	284.33295	-924.57507	48.61084	331.26236	-959.56195	51.28288	277.21808	-931.32660	51.98672	236.28865	-1115.02551	999.34515	159.46039	-1289.49890	963.97443	118.88839	-1254.24316	574.30347	102.89436	-1268.96411	515.37628	116.41167	-1314.74023	591.04156	87.32602	-1339.09583	534.48730	96.02903	-1356.96558	471.24176	115.39659	-1326.29993	478.22592	225.49310	-1332.37561	270.03378	107.52194	-1352.22656	226.63890	110.85087	-1392.07654	287.01526	99.08669	-1400.67126	244.14540	102.96586	-1445.81128	97.30701	129.72366	-1457.90503	107.25678	209.42799	-1390.52124	56.17498	171.13071	-1590.78052	84.86121	212.33849	-1610.88318	106.63961	173.79842	-1570.44580	58.50120	111.14719
2015	8.05600	-1108.10950	1009.98889	271.32458	-1283.30627	952.45398	325.76019	-1093.84753	629.60229	359.57397	-1085.75964	567.89368	353.00739	-1167.50354	614.98334	362.22943	-1150.44824	555.87579	355.71136	-1078.29553	479.17590	348.09210	-1086.66724	468.03412	236.69839	-920.08881	362.57846	345.12711	-897.75568	319.46661	343.28854	-970.61060	331.22177	355.18030	-941.37750	294.17838	349.01535	-841.12537	160.17717	319.22311	-868.03705	162.63881	242.79083	-755.74890	148.26157	284.02597	-925.25122	48.58081	331.35526	-959.95099	51.15203	277.33914	-932.08221	51.98490	236.30040	-1120.94592	1000.16461	158.83415	-1295.34521	964.60577	118.55309	-1258.59631	575.10260	101.89986	-1273.17090	516.01764	115.38778	-1319.35583	591.48376	86.29005	-1343.51965	534.84198	94.94148	-1361.45703	471.40631	114.89584	-1330.20618	478.40552	224.72321	-1334.97717	270.26468	106.25339	-1354.85046	226.64380	109.79603	-1395.12268	286.87085	98.55328	-1403.38574	243.87758	102.40395	-1447.06091	96.93395	129.52692	-1459.38281	106.71328	209.26312	-1391.18420	56.60600	170.97089	-1591.97351	82.79460	212.45819	-1612.52246	104.18738	173.70518	-1571.33240	56.59395	111.17377
2016	8.06000	-1114.03674	1010.44659	270.92642	-1289.13184	952.75958	325.18137	-1100.72302	629.31689	358.82535	-1093.22644	567.54858	353.00668	-1174.88269	614.98322	362.20105	-1158.05359	555.73499	355.94193	-1085.74280	478.99976	348.66412	-1094.89355	467.20581	237.30179	-925.97101	364.55078	344.76636	-903.29303	323.28284	339.85776	-976.04523	332.53220	355.53683	-946.30109	295.68933	349.17801	-844.78589	162.60027	319.48972	-872.37531	164.55273	243.34622	-759.64740	152.92470	283.91595	-926.18158	48.60719	331.55606	-960.73895	51.54985	277.40479	-932.96362	52.15842	236.28818	-1126.84094	1001.03003	158.40860	-1301.34412	965.22455	118.18932	-1263.19189	575.78986	100.90209	-1277.68359	516.67029	114.38072	-1323.92261	592.05713	85.19568	-1347.99084	535.42572	93.96111	-1365.73035	471.69382	114.24197	-1334.30981	478.81406	224.08553	-1337.80383	270.47336	105.06788	-1357.32178	226.81731	108.66351	-1398.11047	286.86017	97.84206	-1406.07507	243.75812	101.75128	-1448.04834	96.64047	129.30280	-1460.76135	106.24790	209.08784	-1391.81519	56.91455	170.96434	-1593.24341	80.95791	212.49199	-1614.05200	101.90679	173.67638	-1572.17725	54.85311	111.21361
2017	8.06400	-1119.77344	1010.97876	270.57111	-1295.84326	953.76831	324.25534	-1108.65540	628.93958	359.08835	-1100.69873	567.14044	353.01932	-1181.87195	615.15161	362.35370	-1165.65088	555.65363	356.22507	-1093.34497	478.79102	349.30212	-1103.32898	466.19299	238.08740	-932.08508	366.43564	344.34204	-909.07617	325.54193	339.57986	-981.64655	333.85471	355.90289	-951.47894	297.39435	349.45468	-848.77979	165.16190	319.73859	-876.77600	166.47807	243.89473	-763.77136	157.81651	283.82858	-927.09412	48.73385	331.71570	-961.01379	51.17049	277.72165	-934.20087	52.39312	236.30180	-1132.73340	1001.91333	157.72147	-1307.02319	965.88190	117.87748	-1267.85486	576.62201	99.79073	-1282.12964	517.49274	113.26351	-1328.51660	592.68701	84.04935	-1352.52283	535.97699	92.87516	-1369.72461	472.02866	113.61263	-1338.01416	479.33868	223.37256	-1340.62097	270.85556	104.08511	-1359.89929	227.05351	107.56229	-1400.99622	286.86151	97.01090	-1408.19800	243.35498	100.69659	-1449.10510	96.27895	129.13710	-1461.79504	105.95934	208.91321	-1392.37476	57.20290	170.90442	-1594.18604	79.18815	212.54605	-1615.37476	99.80994	173.74370	-1572.80249	53.26618	111.11677
2018	8.06800	-1125.71777	1011.45392	270.21359	-1301.70032	954.07062	323.66336	-1115.62207	628.88049	359.31604	-1108.67371	566.68481	353.18832	-1189.74890	614.83704	362.39011	-1173.40088	555.47083	356.54929	-1100.98682	478.61456	349.89334	-1112.07190	465.16843	238.82465	-938.53204	368.34406	343.98468	-914.86200	327.64340	339.14810	-987.41510	335.18649	356.28970	-956.82184	299.06631	349.82590	-852.98566	167.87631	320.01376	-881.36346	168.50053	244.40413	-768.07483	162.80304	283.88208	-928.15210	48.86111	331.83701	-961.86975	51.15306	277.97293	-935.49597	52.78139	236.42725	-1138.46130	1002.86688	157.33354	-1312.92603	966.73358	117.48821	-1272.44751	577.64868	98.57662	-1286.46277	518.45447	112.03111	-1333.20593	593.48669	83.03876	-1357.00171	536.67560	91.80485	-1373.63318	472.52823	112.82484	-1342.06262	479.94424	222.78572	-1343.30640	271.26160	102.62358	-1362.34399	227.41264	106.49837	-1403.80823	287.00418	96.09377	-1411.37024	243.75946	100.23235	-1450.02368	96.10352	129.11116	-1463.04285	105.62371	208.64375	-1392.86243	57.56942	170.75389	-1595.08044	77.52991	212.65633	-1616.58093	97.78004	173.80197	-1573.77563	49.84395	113.27705
2019	8.07200	-1131.30151	1012.02991	269.90826	-1307.34814	954.42523	323.02243	-1123.12415	628.33899	359.16321	-1116.38904	566.21899	353.31119	-1197.32837	614.75806	362.57520	-1181.23584	555.23108	357.01013	-1108.88684	478.35175	350.53830	-1120.96167	464.01981	239.56825	-944.95258	370.29370	343.65872	-921.03436	329.91446	338.92111	-993.32196	336.50247	356.76971	-962.38385	300.81000	350.28098	-857.39392	170.48714	320.27332	-886.13147	170.59319	244.84351	-772.61438	168.08180	284.01178	-929.28613	48.98478	332.13675	-962.98907	51.16355	278.31265	-937.07605	53.28743	236.67068	-1142.98560	1004.08795	157.69087	-1318.14954	967.48785	117.28537	-1276.97180	578.65332	97.39322	-1290.71191	519.42822	110.79591	-1337.86316	594.36493	82.03623	-1361.45789	537.38892	90.86790	-1377.22986	473.08224	112.02747	-1345.64795	480.53760	222.03479	-1346.02759	271.73721	101.63079	-1364.64502	227.89563	105.39820	-1406.58936	287.17456	95.15736	-1413.33936	243.79288	98.83254	-1450.81714	95.85641	128.91904	-1463.68591	105.43811	208.48596	-1393.31506	57.81372	170.63675	-1595.77197	76.01235	212.76538	-1617.60852	95.89403	173.90710	-1574.41797	48.65889	113.22963
